# xmcd
#
# Track frame offsets:
#	150
#	21646
#	43447
#	62332
#	75789
#	102313
#	138609
#	146511
#	168174
#	182427
#	203910
#	212484
#	249354
#	270786
#	292139
#	310805
#
# Disc length: 4494 seconds
#
# Revision: 1
# Processed by: cddbd v1.5.2PL0 Copyright (c) Steve Scherf et al.
# Submitted via: EasyCDDAExtractor 15.3.0.1
#
DISCID=df118c10
DTITLE=Luke Brady - Take Your Partner For... Vol 4
DYEAR=2014
DGENRE=country
TTITLE0=The Castle of Mey - R8x32
TTITLE1=Bill Clement MBE - J8x32
TTITLE2=Culla Bay - S4x32
TTITLE3=Polharrow Burn - R5x32
TTITLE4=Napier's Index - J8x40
TTITLE5=Delvine Side - S8x32
TTITLE6=Round Reel of Eight - R1x88
TTITLE7=The Last of the Lairds - J8x32
TTITLE8=Neidpath Castle - S3x32
TTITLE9=Starlight - H8x32
TTITLE10=The Dundee City Police Jig - J3x32
TTITLE11=The Valentine - S8x32
TTITLE12=Milton's Welcome - R8x32
TTITLE13=The Chequered Court - J8x32
TTITLE14=The Balmoral Strathspey - S4x32
TTITLE15=The Highland Rambler - R8x40
EXTD=
EXTT0=
EXTT1=
EXTT2=
EXTT3=
EXTT4=
EXTT5=
EXTT6=
EXTT7=
EXTT8=
EXTT9=
EXTT10=
EXTT11=
EXTT12=
EXTT13=
EXTT14=
EXTT15=
PLAYORDER=
